<svg width="28" height="22" viewBox="0 0 28 22" fill="none" xmlns="http://www.w3.org/2000/svg">
<path fill-rule="evenodd" clip-rule="evenodd" d="M4.66675 0.333496C2.45761 0.333496 0.666748 2.12436 0.666748 4.3335V17.6668C0.666748 19.876 2.45761 21.6668 4.66675 21.6668H23.3334C25.5426 21.6668 27.3334 19.876 27.3334 17.6668V4.3335C27.3334 2.12436 25.5426 0.333496 23.3334 0.333496H4.66675ZM4.4341 3.02039C4.50965 3.0071 4.58739 3.00016 4.66675 3.00016H23.3334C23.4128 3.00016 23.4905 3.0071 23.5661 3.02039L14.0001 9.39772L4.4341 3.02039ZM3.33341 5.49153V17.6668C3.33341 18.4032 3.93037 19.0002 4.66675 19.0002H23.3334C24.0698 19.0002 24.6667 18.4032 24.6667 17.6668V5.49156L14.7397 12.1096C14.2918 12.4082 13.7084 12.4082 13.2605 12.1096L3.33341 5.49153Z" fill="#B8C0CC"/>
</svg>
