<svg width="20" height="28" viewBox="0 0 20 28" fill="none" xmlns="http://www.w3.org/2000/svg">
<path fill-rule="evenodd" clip-rule="evenodd" d="M10.0001 3.33317C6.31818 3.33317 3.33341 6.31794 3.33341 9.99984C3.33341 13.717 5.48234 19.1562 10.0001 24.0736C14.5178 19.1562 16.6667 13.717 16.6667 9.99984C16.6667 6.31794 13.682 3.33317 10.0001 3.33317ZM0.666748 9.99984C0.666748 4.84518 4.84542 0.666504 10.0001 0.666504C15.1547 0.666504 19.3334 4.84518 19.3334 9.99984C19.3334 14.8694 16.4475 21.438 10.9429 26.9426C10.4222 27.4633 9.57797 27.4633 9.05727 26.9426C3.55267 21.438 0.666748 14.8694 0.666748 9.99984Z" fill="#B8C0CC"/>
<path fill-rule="evenodd" clip-rule="evenodd" d="M10.0001 11.3332C10.7365 11.3332 11.3334 10.7362 11.3334 9.99984C11.3334 9.26346 10.7365 8.6665 10.0001 8.6665C9.2637 8.6665 8.66675 9.26346 8.66675 9.99984C8.66675 10.7362 9.2637 11.3332 10.0001 11.3332ZM10.0001 13.9998C12.2092 13.9998 14.0001 12.209 14.0001 9.99984C14.0001 7.7907 12.2092 5.99984 10.0001 5.99984C7.79094 5.99984 6.00008 7.7907 6.00008 9.99984C6.00008 12.209 7.79094 13.9998 10.0001 13.9998Z" fill="#B8C0CC"/>
</svg>
